<svg width="40" height="40" class="hidden">
  <symbol fill="#5439F8" xmlns="http://www.w3.org/2000/svg" viewBox="0 0 78 78" id="close">
    <path d="M14.8687 14.8687C15.7829 13.9548 17.0227 13.4414 18.3154 13.4414C19.608 13.4414 20.8478 13.9548 21.762 14.8687L39 32.1067L56.238 14.8687C57.1574 13.9807 58.3889 13.4893 59.6671 13.5005C60.9453 13.5116 62.168 14.0243 63.0719 14.9281C63.9757 15.832 64.4884 17.0547 64.4995 18.3329C64.5106 19.6111 64.0193 20.8426 63.1312 21.762L45.8932 39L63.1312 56.238C64.0193 57.1574 64.5106 58.3889 64.4995 59.6671C64.4884 60.9453 63.9757 62.168 63.0719 63.0719C62.168 63.9757 60.9453 64.4884 59.6671 64.4995C58.3889 64.5106 57.1574 64.0193 56.238 63.1312L39 45.8932L21.762 63.1312C20.8426 64.0193 19.6111 64.5106 18.3329 64.4995C17.0547 64.4884 15.832 63.9757 14.9281 63.0719C14.0243 62.168 13.5116 60.9453 13.5005 59.6671C13.4893 58.3889 13.9807 57.1574 14.8687 56.238L32.1067 39L14.8687 21.762C13.9548 20.8478 13.4414 19.608 13.4414 18.3154C13.4414 17.0227 13.9548 15.7829 14.8687 14.8687V14.8687Z" fill="white"></path>
  </symbol>
</svg>